<?xml version="1.0" ?><svg data-name="Layer 1" id="Layer_1" viewBox="0 0 512 512" xmlns="http://www.w3.org/2000/svg"><path d="M472,368.67H455.25v-219A60.12,60.12,0,0,0,395.2,89.63H116.8a60.12,60.12,0,0,0-60,60.06v219H40a6.69,6.69,0,0,0-6.69,6.69v14.53a32.53,32.53,0,0,0,32.49,32.48H446.19a32.53,32.53,0,0,0,32.49-32.48V375.36A6.69,6.69,0,0,0,472,368.67Zm-401.87-219A46.74,46.74,0,0,1,116.8,103H395.2a46.74,46.74,0,0,1,46.68,46.69v219H70.12ZM465.3,389.89A19.13,19.13,0,0,1,446.19,409H65.81A19.13,19.13,0,0,1,46.7,389.89v-7.84H465.3Z"/><path d="M403.87,150.13H345.12a6.69,6.69,0,0,0-4.73,2L317.2,175.28A61.87,61.87,0,0,0,194,183.41v37.17L164.76,249.8h-56a6.69,6.69,0,1,0,0,13.37h58.75a6.65,6.65,0,0,0,4.73-2l22.81-22.8A61.69,61.69,0,0,0,218,276.32h-1.44a55.37,55.37,0,0,0-55.3,55.3v17.8a6.69,6.69,0,0,0,13.38,0v-17.8a42,42,0,0,1,41.92-41.92h78.9a42,42,0,0,1,41.92,41.92v17.8a6.69,6.69,0,0,0,13.38,0v-17.8a55.37,55.37,0,0,0-55.3-55.3H294a61.69,61.69,0,0,0,24-48.64V193.37l29.85-29.86h56a6.69,6.69,0,1,0,0-13.38Zm-99.22,77.55a48.65,48.65,0,0,1-97.3,0V183.41a48.65,48.65,0,1,1,97.3,0Z"/><path d="M403.87,175H358.49a6.69,6.69,0,1,0,0,13.37h45.38a6.69,6.69,0,1,0,0-13.37Z"/><path d="M108.77,238.3h45.38a6.69,6.69,0,1,0,0-13.37H108.77a6.69,6.69,0,1,0,0,13.37Z"/></svg>