<svg xmlns="http://www.w3.org/2000/svg" viewBox="0 0 24 24" fill="none" stroke="#000" stroke-width="2" stroke-linecap="round" stroke-linejoin="round"><path d="M10.68 13.31a16 16 0 0 0 3.41 2.6l1.27-1.27a2 2 0 0 1 2.11-.45 12.84 12.84 0 0 0 2.81.7 2 2 0 0 1 1.72 2v3a2 2 0 0 1-2.18 2 19.79 19.79 0 0 1-8.63-3.07C9.44 17.29 8.19 15.66 7 14"/><path d="M6.27 6.27A19.79 19.79 0 0 0 3.07 14.9a2 2 0 0 0 2.01 1.84h.09a12.84 12.84 0 0 0 2.7-.7 2 2 0 0 1 2.11.45l1.27 1.27"/><line x1="1" y1="1" x2="23" y2="23"/></svg>
